<?xml version="1.0" encoding="UTF-8"?>
<svg width="18px" height="20px" viewBox="0 0 18 20" version="1.1" xmlns="http://www.w3.org/2000/svg" xmlns:xlink="http://www.w3.org/1999/xlink">
    <!-- Generator: Sketch 43.2 (39069) - http://www.bohemiancoding.com/sketch -->
    <title>email-icon</title>
    <desc>Created with Sketch.</desc>
    <defs></defs>
    <g id="CASE-MANAGER" stroke="none" stroke-width="1" fill="none" fill-rule="evenodd">
        <g id="LOGIN" transform="translate(-565.000000, -423.000000)" fill="#FFFFFF">
            <g id="EMAIL" transform="translate(545.000000, 408.000000)">
                <path d="M30.8106509,21.8919095 C30.5976331,21.8361046 30.3313609,21.7802997 29.9852071,21.7802997 C28.2278107,21.7802997 26.8431953,23.5939601 26.8431953,25.7424501 C26.8431953,26.8027439 27.295858,27.4724031 28.1745562,27.4724031 C29.1597633,27.4724031 30.1982249,26.1609871 30.4378698,24.542644 L30.8106509,21.8919095 Z M33.1804734,33.4156288 C31.5828402,34.1680653 30.1982249,34.4201176 28.3076923,34.4201176 C23.887574,34.4201176 20,31.0987938 20,25.6308402 C20,19.9387368 23.9408284,15 29.9585799,15 C34.6449704,15 38,18.3761986 38,23.0638132 C38,27.1375735 35.816568,29.7036705 32.9408284,29.7036705 C31.6893491,29.7036705 30.7840237,29.0349413 30.6508876,27.5561105 L30.5976331,27.5561105 C29.7721893,28.9791364 28.5739645,29.7036705 27.1627219,29.7036705 C25.4319527,29.7036705 24.1804734,28.3652821 24.1804734,26.0772797 C24.1804734,22.6731786 26.5769231,19.5760047 30.4112426,19.5760047 C31.5828402,19.5760047 32.9142012,19.8829319 33.5798817,20.2735664 L32.7810651,25.435523 C32.5147929,27.0817686 32.7011834,27.8351352 33.4467456,27.8630377 C34.591716,27.8909401 36.0295858,26.3563044 36.0295858,23.1475206 C36.0295858,19.5201998 33.7928994,16.7020505 29.6656805,16.7020505 C25.591716,16.7020505 22.0245562,20.0512768 22.0245562,25.379718 C22.0245562,30.0394302 24.8727811,32.6892345 28.8402367,32.6892345 C30.1982249,32.6892345 31.6360947,32.3823074 32.7011834,31.7963555 L33.1804734,33.4156288 Z" id="email-icon"></path>
            </g>
        </g>
    </g>
</svg>