<?xml version="1.0" encoding="UTF-8"?>
<svg width="18px" height="20px" viewBox="0 0 18 20" version="1.1" xmlns="http://www.w3.org/2000/svg" xmlns:xlink="http://www.w3.org/1999/xlink">
    <!-- Generator: Sketch 43.2 (39069) - http://www.bohemiancoding.com/sketch -->
    <title>icon-add-note</title>
    <desc>Created with Sketch.</desc>
    <defs></defs>
    <g id="Symbols" stroke="none" stroke-width="1" fill="none" fill-rule="evenodd">
        <g id="ACTIONS" transform="translate(-53.000000, 0.000000)">
            <g id="icon-add-note" transform="translate(52.000000, 0.000000)">
                <rect id="Rectangle" x="0" y="0" width="20" height="20"></rect>
                <path d="M15.281381,4.83868706 L18.3608553,4.83868706 L18.3608553,18.8348369 C18.3608553,19.155576 18.2228565,19.4479312 17.9993583,19.6579728 L17.9993583,19.659392 C17.7758602,19.8708528 17.4683628,20 17.1278656,20 L2.17749019,20 C1.5279956,20 1,19.5004416 1,18.8845088 L1,1.28075281 C1,0.666239237 1.5279956,0.166680859 2.17749019,0.166680859 L13.4363964,0.166680859 L13.4363964,3.09165193 C13.4363964,3.57276071 13.6418947,4.00987429 13.9778919,4.32635588 C14.3108891,4.64141826 14.7728852,4.83868706 15.281381,4.83868706 Z M16.3655487,3.75670572 C16.0274931,3.75670572 15.7222005,3.62191651 15.5017942,3.40741325 C15.2813879,3.1900113 15.1428893,2.89434465 15.1428893,2.56679237 L15.1428893,0 L19,3.75670572 L16.3655487,3.75670572 Z M10.8570607,10.4352937 L10.8570607,6.2611762 L9.14278929,6.2611762 L9.14278929,10.4352937 L4.85711071,10.4352937 L4.85711071,12.1049407 L9.14278929,12.1049407 L9.14278929,16.2790581 L10.8570607,16.2790581 L10.8570607,12.1049407 L15.1427393,12.1049407 L15.1427393,10.4352937 L10.8570607,10.4352937 Z" id="Combined-Shape" fill="#22A7F0"></path>
            </g>
        </g>
    </g>
</svg>