<?xml version="1.0" encoding="UTF-8"?>
<svg width="20px" height="13px" viewBox="0 0 20 13" version="1.1" xmlns="http://www.w3.org/2000/svg" xmlns:xlink="http://www.w3.org/1999/xlink">
    <!-- Generator: Sketch 43.2 (39069) - http://www.bohemiancoding.com/sketch -->
    <title>icon-view</title>
    <desc>Created with Sketch.</desc>
    <defs></defs>
    <g id="Symbols" stroke="none" stroke-width="1" fill="none" fill-rule="evenodd">
        <g id="ACTIONS" transform="translate(0.000000, -4.000000)">
            <g id="icon-view">
                <rect id="Rectangle" x="0" y="0" width="20" height="20"></rect>
                <path d="M18.1392202,10.7848653 C17.2387811,11.8134266 13.9206208,15.2647828 9.96542092,15.2647828 C6.00937947,15.2647828 2.69206073,11.8134266 1.79078006,10.7848653 C1.64687811,10.6202262 1.64687811,10.3776001 1.79078006,10.212961 C2.42950277,9.48421617 4.2876052,7.54060788 6.72299852,6.46958699 C6.128877,7.21652874 5.75776143,8.15843789 5.75776143,9.19913051 C5.75776143,11.5924636 7.64110982,13.5317393 9.96542092,13.5317393 C12.2888905,13.5317393 14.1730804,11.5924636 14.1730804,9.19913051 C14.1730804,8.15843789 13.8019648,7.21652874 13.2078433,6.46958699 C15.6432366,7.54060788 17.5004975,9.48421617 18.1392202,10.212961 C18.2831222,10.3776001 18.2831222,10.6202262 18.1392202,10.7848653 M13.3315485,8.76586964 C13.3315485,9.48334965 12.7660391,10.0656523 12.0692507,10.0656523 C11.3716207,10.0656523 10.8069528,9.48334965 10.8069528,8.76586964 C10.8069528,8.04838963 11.3716207,7.46608701 12.0692507,7.46608701 C12.7660391,7.46608701 13.3315485,8.04838963 13.3315485,8.76586964 M19.3888951,9.05182182 C18.3504447,7.86728658 14.6022617,4 9.96542092,4 C5.32773863,4 1.57955556,7.86728658 0.539422131,9.05355486 C-0.180087642,9.87761705 -0.180087642,11.1202092 0.541105195,11.9460045 C1.57955556,13.1305397 5.32773863,16.9978263 9.96542092,16.9978263 C14.6022617,16.9978263 18.3504447,13.1305397 19.3905782,11.9442714 C20.1100879,11.1202092 20.1100879,9.87761705 19.3888951,9.05182182" fill="#22A7F0"></path>
            </g>
        </g>
    </g>
</svg>