<?xml version="1.0" encoding="UTF-8"?>
<svg width="18px" height="24px" viewBox="0 0 18 24" version="1.1" xmlns="http://www.w3.org/2000/svg" xmlns:xlink="http://www.w3.org/1999/xlink">
    <!-- Generator: Sketch 43.2 (39069) - http://www.bohemiancoding.com/sketch -->
    <title>password-icon</title>
    <desc>Created with Sketch.</desc>
    <defs></defs>
    <g id="CASE-MANAGER" stroke="none" stroke-width="1" fill="none" fill-rule="evenodd">
        <g id="LOGIN" transform="translate(-565.000000, -491.000000)" fill="#FFFFFF">
            <g id="PASSWORD" transform="translate(545.000000, 478.000000)">
                <path d="M30.4147887,31.2341714 C30.4302012,31.3553589 30.3341262,31.4624779 30.2101512,31.4624779 L27.7898262,31.4624779 C27.6658512,31.4624779 27.5697762,31.3553589 27.5851887,31.2341714 L27.8629512,29.0463721 C27.4260012,28.7119435 27.1437387,28.1908595 27.1437387,27.6038647 C27.1437387,26.5943753 27.9748887,25.776083 28.9999887,25.776083 C30.0252012,25.776083 30.8562387,26.5943753 30.8562387,27.6038647 C30.8562387,28.1908595 30.5739762,28.7119435 30.1370262,29.0463721 L30.4147887,31.2341714 Z M23.9374887,20.200352 C23.9374887,17.4517007 26.2085262,15.2154929 28.9999887,15.2154929 C31.7914512,15.2154929 34.0624887,17.4517007 34.0624887,20.200352 L34.0624887,22.0281337 L23.9374887,22.0281337 L23.9374887,20.200352 Z M37.5499887,22.0281337 L36.3124887,22.0281337 L36.3124887,20.200352 C36.3124887,16.2237637 33.0386262,13 28.9999887,13 C24.9613512,13 21.6874887,16.2237637 21.6874887,20.200352 L21.6874887,22.0281337 L20.4499887,22.0281337 C20.2014762,22.0281337 19.9999887,22.226531 19.9999887,22.4712322 L19.9999887,27.566866 C19.9999887,32.4612221 24.0294012,36.4288376 28.9999887,36.4288376 C33.9705762,36.4288376 37.9999887,32.4612221 37.9999887,27.566866 L37.9999887,22.4712322 C37.9999887,22.226531 37.7985012,22.0281337 37.5499887,22.0281337 L37.5499887,22.0281337 Z" id="password-icon"></path>
            </g>
        </g>
    </g>
</svg>