<?xml version="1.0" encoding="UTF-8"?>
<svg width="23px" height="25px" viewBox="0 0 23 25" version="1.1" xmlns="http://www.w3.org/2000/svg" xmlns:xlink="http://www.w3.org/1999/xlink">
    <!-- Generator: Sketch 43.2 (39069) - http://www.bohemiancoding.com/sketch -->
    <title>side-nav-members-icon</title>
    <desc>Created with Sketch.</desc>
    <defs></defs>
    <g id="Symbols" stroke="none" stroke-width="1" fill="none" fill-rule="evenodd">
        <g id="Side-MENU" transform="translate(-101.000000, -33.000000)" fill="#FFFFFF">
            <g id="MEMBERS-(ACTIVE)">
                <g>
                    <path d="M115.662382,46.5521527 C117.419196,47.1029116 118.991134,48.0727892 120.263009,49.3407929 C122.304398,51.3860539 123.56853,54.2066362 123.56853,57.3214728 C123.56853,57.6960663 123.264597,58 122.890003,58 L101.678527,58 C101.30103,58 101,57.6960663 101,57.3214728 C101,54.2066362 102.262196,51.3860539 104.301649,49.3407929 C105.574493,48.0727892 107.144494,47.1058154 108.897437,46.5550565 C108.266339,46.2172449 107.692349,45.7903825 107.18902,45.2880208 C105.888106,43.988075 105.078907,42.1867353 105.078907,40.1985829 C105.078907,38.2104305 105.888106,36.4119947 107.18902,35.1120489 C108.491869,33.8072634 110.292241,33 112.27749,33 C114.265642,33 116.066014,33.8072634 117.367895,35.1120489 C118.667841,36.4119947 119.47704,38.2133344 119.47704,40.1985829 C119.47704,42.1838315 118.667841,43.9822673 117.367895,45.2851169 L117.367895,45.2880208 C116.867469,45.7874787 116.292512,46.215309 115.662382,46.5521527" id="side-nav-members-icon"></path>
                </g>
            </g>
        </g>
    </g>
</svg>