<?xml version="1.0" encoding="UTF-8"?>
<svg width="29px" height="25px" viewBox="0 0 29 25" version="1.1" xmlns="http://www.w3.org/2000/svg" xmlns:xlink="http://www.w3.org/1999/xlink">
    <!-- Generator: Sketch 43.2 (39069) - http://www.bohemiancoding.com/sketch -->
    <title>side-nav-add-member-icon</title>
    <desc>Created with Sketch.</desc>
    <defs></defs>
    <g id="Symbols" stroke="none" stroke-width="1" fill="none" fill-rule="evenodd">
        <g id="Side-MENU" transform="translate(-98.000000, -153.000000)" fill="#FFFFFF">
            <g id="ADD-NEW">
                <g transform="translate(0.000000, 120.000000)">
                    <path d="M112.680773,46.5589283 C112.674965,46.5569924 112.66819,46.5540886 112.662382,46.5521527 C112.66819,46.5492489 112.673997,46.5444092 112.679805,46.5405374 C112.678837,46.4882685 112.672061,46.4379356 112.672061,46.3846988 C112.672061,43.4857132 114.175275,40.9419622 116.441227,39.4764984 C116.270869,37.7787285 115.509099,36.2522843 114.367895,35.111081 C113.065046,33.8082314 111.265642,33 109.27749,33 C107.293209,33 105.491869,33.8082314 104.189988,35.111081 C102.889074,36.4119947 102.079875,38.2104305 102.079875,40.1985829 C102.079875,42.1857674 102.889074,43.987107 104.189988,45.2880208 C104.692349,45.7903825 105.267307,46.2172449 105.897437,46.5550565 C104.145462,47.1048475 102.575461,48.0718213 101.301649,49.3407929 C99.263164,51.385086 98,54.2066362 98,57.3214728 C98,57.6960663 98.3019978,58 98.6785272,58 L119.890003,58 C120.264597,58 120.56853,57.6960663 120.56853,57.3214728 C120.56853,56.3738578 120.438826,55.4581849 120.218135,54.5783258 C116.051146,54.2356745 112.769823,50.7927056 112.680773,46.5589283 M121.4,47.4 L121.4,50.5689 C121.4,50.8074 121.2074,51 120.9689,51 L120.032,51 C119.7935,51 119.6,50.8074 119.6,50.5689 L119.6,47.4 L116.432,47.4 C116.1935,47.4 116,47.2074 116,46.9689 L116,46.0311 C116,45.7926 116.1935,45.6 116.432,45.6 L119.6,45.6 L119.6,42.4311 C119.6,42.1926 119.7935,42 120.032,42 L120.9689,42 C121.2074,42 121.4,42.1926 121.4,42.4311 L121.4,45.6 L124.5689,45.6 C124.8074,45.6 125,45.7926 125,46.0311 L125,46.9689 C125,47.2074 124.8074,47.4 124.5689,47.4 L121.4,47.4 Z M120.5,40 C116.910143,40 114,42.9101429 114,46.5 C114,50.0898571 116.910143,53 120.5,53 C124.090786,53 127,50.0898571 127,46.5 C127,42.9101429 124.090786,40 120.5,40" id="side-nav-add-member-icon"></path>
                </g>
            </g>
        </g>
    </g>
</svg>