<?xml version="1.0" encoding="UTF-8"?>
<svg width="32px" height="25px" viewBox="0 0 32 25" version="1.1" xmlns="http://www.w3.org/2000/svg" xmlns:xlink="http://www.w3.org/1999/xlink">
    <!-- Generator: Sketch 43.2 (39069) - http://www.bohemiancoding.com/sketch -->
    <title>side-nav-prospect-icon</title>
    <desc>Created with Sketch.</desc>
    <defs></defs>
    <g id="Symbols" stroke="none" stroke-width="1" fill="none" fill-rule="evenodd">
        <g id="Side-MENU" transform="translate(-98.000000, -274.000000)" fill="#FFFFFF">
            <g id="PROSPECTS">
                <g transform="translate(0.000000, 240.000000)">
                    <g id="side-nav-prospect-icon" transform="translate(98.000000, 34.000000)">
                        <path d="M14.6720613,13.3846988 C14.6720613,10.4857132 16.1752749,7.94196221 18.4412266,6.47649837 C18.2708688,4.77872851 17.5090987,3.25228434 16.3678953,2.111081 C15.0650457,0.808231377 13.2656419,0 11.2774895,0 C9.29320892,0 7.49186929,0.808231377 6.18998761,2.111081 C4.88907387,3.41199473 4.07987455,5.21043054 4.07987455,7.19858293 C4.07987455,9.18576738 4.88907387,10.987107 6.18998761,12.2880208 C6.69234939,12.7903825 7.2673068,13.2172449 7.89743689,13.5550565 C6.14546229,14.1048475 4.57546074,15.0718213 3.30164937,16.3407929 C1.26316401,18.385086 0,21.2066362 0,24.3214728 C0,24.6960663 0.301997832,25 0.67852718,25 L21.8900031,25 C22.2645966,25 22.5685303,24.6960663 22.5685303,24.3214728 C22.5685303,23.3738578 22.4388261,22.4581849 22.2181354,21.5783258 C18.051146,21.2356745 14.7698234,17.7927056 14.6807728,13.5589283 C14.6788369,13.4882685 14.6720613,13.4379356 14.6720613,13.3846988 Z" id="Path"></path>
                        <path d="M28.5060661,16.5608991 L31.6791619,19.7339258 L31.6889634,19.7447073 C31.8954499,19.9577235 32,20.2341218 32,20.5105201 C32,20.7911657 31.8928361,21.0727914 31.6791619,21.2864611 L31.6791619,21.2871145 L31.287099,21.6788421 C31.0734247,21.8925118 30.7921195,22 30.5104877,22 C30.229836,22 29.9485309,21.8925118 29.7345299,21.6788421 L29.7342031,21.6788421 L26.5614341,18.5058155 C25.5979395,19.1151333 24.4570364,19.4676555 23.2334735,19.4676555 C21.5123173,19.4676555 19.954194,18.769472 18.8263597,17.6413356 C17.6975453,16.514506 17,14.9551098 17,13.2336644 C17,11.5125457 17.6975453,9.95380293 18.8263597,8.8259932 C19.954194,7.69785677 21.5123173,7 23.2334735,7 C24.955283,7 26.5143865,7.69785677 27.6422208,8.8259932 C28.7690749,9.95380293 29.4676004,11.5125457 29.4676004,13.2336644 C29.4676004,14.4572007 29.1150705,15.5980789 28.5060661,16.5608991 Z M24.8131602,9.41603502 C24.3260221,9.21445374 23.7921631,9.10271824 23.2334735,9.10271824 C22.6754373,9.10271824 22.1412516,9.21445374 21.6544401,9.41603502 C21.1476988,9.62578411 20.6925791,9.93256665 20.3126048,10.3125327 C19.9323038,10.6918453 19.6255146,11.1476085 19.4160876,11.6543387 C19.2138485,12.141793 19.1024373,12.6756404 19.1024373,13.2336644 C19.1024373,13.7926686 19.2148287,14.3258625 19.4160876,14.8133168 C19.6255146,15.3187402 19.9323038,15.77385 20.3129315,16.1544694 L20.3126048,16.1551228 C20.6925791,16.5354156 21.1470454,16.8415447 21.6544401,17.0519472 C22.1412516,17.2532018 22.6754373,17.3649373 23.2334735,17.3649373 C23.7928165,17.3649373 24.3260221,17.2532018 24.8131602,17.0519472 C25.3189214,16.8418714 25.7737144,16.5354156 26.1543421,16.1544694 L26.1549955,16.1551228 C26.5352966,15.7751568 26.8420858,15.3197203 27.0518394,14.8126634 C27.2527717,14.3258625 27.3645096,13.7923419 27.3645096,13.2336644 C27.3645096,12.6749869 27.2527717,12.141793 27.0518394,11.6543387 C26.8420858,11.1482619 26.5352966,10.6918453 26.1549955,10.3125327 C25.7746945,9.93256665 25.3195748,9.62578411 24.8131602,9.41603502 Z" id="search"></path>
                    </g>
                </g>
            </g>
        </g>
    </g>
</svg>