<?xml version="1.0" encoding="UTF-8"?>
<svg width="161px" height="62px" viewBox="0 0 161 62" version="1.1" xmlns="http://www.w3.org/2000/svg" xmlns:xlink="http://www.w3.org/1999/xlink">
    <!-- Generator: Sketch 43.2 (39069) - http://www.bohemiancoding.com/sketch -->
    <title>solve-logo--reversed</title>
    <desc>Created with Sketch.</desc>
    <defs>
        <polygon id="path-1" points="5.07166793e-17 4.76945333 5.07166793e-17 0.120956364 4.59016935 0.120956364 4.59016935 4.76945333 -7.30012808e-17 4.76945333"></polygon>
    </defs>
    <g id="CASE-MANAGER" stroke="none" stroke-width="1" fill="none" fill-rule="evenodd">
        <g id="LOGIN" transform="translate(-638.000000, -285.000000)">
            <g id="LOGO-reversed" transform="translate(638.000000, 285.000000)">
                <g id="S-SMART-CITIES">
                    <path d="M3.29397097,21.691583 L1.30001935,21.691583 C1.30001935,10.6920315 10.1349871,1.74449212 20.9935839,1.74449212 L20.9935839,3.7623103 C11.2341645,3.7623103 3.29397097,11.805777 3.29397097,21.691583 Z" id="Fill-1" fill="#22A7F0"></path>
                    <path d="M20.9937323,41.6386739 C10.1351355,41.6386739 1.30016774,32.6911345 1.30016774,21.691583 L3.29411935,21.691583 C3.29411935,31.5773891 11.2343129,39.6208558 20.9937323,39.6208558 L20.9937323,41.6386739 Z" id="Fill-3" fill="#22A7F0"></path>
                    <path d="M20.9913581,2.44798545 C20.8251645,2.44798545 20.6897613,2.58588848 20.6897613,2.75497939 C20.6897613,3.09015515 21.2929548,3.09015515 21.2929548,2.75497939 C21.2929548,2.58588848 21.1575516,2.44798545 20.9913581,2.44798545 M20.9913581,5.07866424 C19.7259871,5.07866424 18.6958097,4.03706424 18.6958097,2.75497939 C18.6958097,1.47364606 19.7259871,0.429791515 20.9913581,0.429791515 C22.256729,0.429791515 23.2869065,1.47364606 23.2869065,2.75497939 C23.2869065,4.03706424 22.256729,5.07866424 20.9913581,5.07866424" id="Fill-5" fill="#22A7F0"></path>
                    <path d="M39.6564145,2.42318545 C39.490221,2.42318545 39.3548177,2.56146424 39.3548177,2.73055515 C39.3548177,3.06573091 39.9580113,3.06573091 39.9580113,2.73055515 C39.9580113,2.56146424 39.8226081,2.42318545 39.6564145,2.42318545 M39.6564145,5.05386424 C38.3910435,5.05386424 37.3608661,4.01226424 37.3608661,2.73055515 C37.3608661,1.44884606 38.3910435,0.405367273 39.6564145,0.405367273 C40.9217855,0.405367273 41.9519629,1.44884606 41.9519629,2.73055515 C41.9519629,4.01226424 40.9217855,5.05386424 39.6564145,5.05386424" id="Fill-7" fill="#22A7F0"></path>
                    <path d="M20.9913581,40.3257394 C20.8251645,40.3257394 20.6897613,40.4636424 20.6897613,40.6327333 C20.6897613,40.9682848 21.2929548,40.9682848 21.2929548,40.6327333 C21.2929548,40.4636424 21.1575516,40.3257394 20.9913581,40.3257394 M20.9913581,42.9564182 C19.7259871,42.9564182 18.6958097,41.9148182 18.6958097,40.6327333 C18.6958097,39.3510242 19.7259871,38.3079212 20.9913581,38.3079212 C22.256729,38.3079212 23.2869065,39.3510242 23.2869065,40.6327333 C23.2869065,41.9148182 22.256729,42.9564182 20.9913581,42.9564182" id="Fill-9" fill="#22A7F0"></path>
                    <g id="Group-13" transform="translate(0.000000, 18.915261)">
                        <mask id="mask-2" fill="white">
                            <use xlink:href="#path-1"></use>
                        </mask>
                        <g id="Clip-12"></g>
                        <path d="M2.29462097,2.13877455 C2.12842742,2.13877455 1.99376613,2.27667758 1.99376613,2.44614424 C1.99376613,2.78132 2.59621774,2.78132 2.59621774,2.44614424 C2.59621774,2.27667758 2.46081452,2.13877455 2.29462097,2.13877455 M2.29462097,4.76945333 C1.02925,4.76945333 -0.000185483871,3.72785333 -0.000185483871,2.44614424 C-0.000185483871,1.16443515 1.02925,0.120956364 2.29462097,0.120956364 C3.55999194,0.120956364 4.59016935,1.16443515 4.59016935,2.44614424 C4.59016935,3.72785333 3.55999194,4.76945333 2.29462097,4.76945333" id="Fill-11" fill="#22A7F0" mask="url(#mask-2)"></path>
                    </g>
                    <path d="M39.6564145,40.3011273 C39.490221,40.3011273 39.3548177,40.4390303 39.3548177,40.6081212 C39.3548177,40.9436727 39.9580113,40.9436727 39.9580113,40.6081212 C39.9580113,40.4390303 39.8226081,40.3011273 39.6564145,40.3011273 M39.6564145,42.9318061 C38.3910435,42.9318061 37.3608661,41.8902061 37.3608661,40.6081212 C37.3608661,39.3264121 38.3910435,38.2833091 39.6564145,38.2833091 C40.9217855,38.2833091 41.9519629,39.3264121 41.9519629,40.6081212 C41.9519629,41.8902061 40.9217855,42.9318061 39.6564145,42.9318061" id="Fill-14" fill="#22A7F0"></path>
                    <path d="M39.6897274,3.74604 L20.9922113,3.74604 C20.4413242,3.74604 19.995421,3.29400364 19.995421,2.73713091 C19.995421,2.18025818 20.4413242,1.72822182 20.9922113,1.72822182 L39.6897274,1.72822182 C40.2402435,1.72822182 40.6865177,2.18025818 40.6865177,2.73713091 C40.6865177,3.29400364 40.2402435,3.74604 39.6897274,3.74604" id="Fill-16" fill="#22A7F0"></path>
                    <path d="M39.6897274,41.6239818 L20.9922113,41.6239818 C20.4413242,41.6239818 19.995421,41.1719455 19.995421,40.614697 C19.995421,40.0578242 20.4413242,39.6061636 20.9922113,39.6061636 L39.6897274,39.6061636 C40.2402435,39.6061636 40.6865177,40.0578242 40.6865177,40.614697 C40.6865177,41.1719455 40.2402435,41.6239818 39.6897274,41.6239818" id="Fill-18" fill="#22A7F0"></path>
                    <path d="M39.6962565,60.5553624 L39.6962565,58.5375442 C49.4556758,58.5375442 57.3958694,50.4940776 57.3958694,40.6082715 L59.389821,40.6082715 C59.389821,51.607823 50.5548532,60.5553624 39.6962565,60.5553624" id="Fill-20" fill="#F22613"></path>
                    <path d="M59.3897839,40.6082715 L57.3958323,40.6082715 C57.3958323,30.7224655 49.4556387,22.6793745 39.6962194,22.6793745 L39.6962194,20.6615564 C50.5548161,20.6615564 59.3897839,29.60872 59.3897839,40.6082715" id="Fill-22" fill="#F22613"></path>
                    <path d="M22.2899306,21.5497721 C22.2899306,22.2761115 21.7086242,22.8649236 20.9915435,22.8649236 C20.2740919,22.8649236 19.6931565,22.2761115 19.6931565,21.5497721 C19.6931565,20.8234327 20.2740919,20.2346206 20.9915435,20.2346206 C21.7086242,20.2346206 22.2899306,20.8234327 22.2899306,21.5497721" id="Fill-24" fill="#F22613"></path>
                    <path d="M20.9913581,21.2430036 C20.8251645,21.2430036 20.6897613,21.3809067 20.6897613,21.5503733 C20.6897613,21.8855491 21.2929548,21.8855491 21.2929548,21.5503733 C21.2929548,21.3809067 21.1575516,21.2430036 20.9913581,21.2430036 M20.9913581,23.8736824 C19.7259871,23.8736824 18.6958097,22.8320824 18.6958097,21.5503733 C18.6958097,20.2686642 19.7259871,19.2251855 20.9913581,19.2251855 C22.256729,19.2251855 23.2869065,20.2686642 23.2869065,21.5503733 C23.2869065,22.8320824 22.256729,23.8736824 20.9913581,23.8736824" id="Fill-26" fill="#F22613"></path>
                    <path d="M22.2899306,59.4273382 C22.2899306,60.1536776 21.7086242,60.7424897 20.9915435,60.7424897 C20.2740919,60.7424897 19.6931565,60.1536776 19.6931565,59.4273382 C19.6931565,58.700623 20.2740919,58.1121867 20.9915435,58.1121867 C21.7086242,58.1121867 22.2899306,58.700623 22.2899306,59.4273382" id="Fill-28" fill="#F22613"></path>
                    <path d="M20.9913581,59.1209455 C20.8251645,59.1209455 20.6897613,59.2588485 20.6897613,59.4279394 C20.6897613,59.7634909 21.2929548,59.7634909 21.2929548,59.4279394 C21.2929548,59.2588485 21.1575516,59.1209455 20.9913581,59.1209455 M20.9913581,61.7516242 C19.7259871,61.7516242 18.6958097,60.7100242 18.6958097,59.4279394 C18.6958097,58.1462303 19.7259871,57.1031273 20.9913581,57.1031273 C22.256729,57.1031273 23.2869065,58.1462303 23.2869065,59.4279394 C23.2869065,60.7100242 22.256729,61.7516242 20.9913581,61.7516242" id="Fill-30" fill="#F22613"></path>
                    <path d="M59.6855935,40.5627673 C59.6855935,41.2891067 59.1042871,41.8779188 58.3872065,41.8779188 C57.6701258,41.8779188 57.0888194,41.2891067 57.0888194,40.5627673 C57.0888194,39.8360521 57.6701258,39.2476158 58.3872065,39.2476158 C59.1042871,39.2476158 59.6855935,39.8360521 59.6855935,40.5627673" id="Fill-32" fill="#F22613"></path>
                    <path d="M58.3872065,40.2567503 C58.2210129,40.2567503 58.0856097,40.3946533 58.0856097,40.5622412 C58.0856097,40.9007988 58.6888032,40.9007988 58.6888032,40.5622412 C58.6888032,40.3946533 58.5534,40.2567503 58.3872065,40.2567503 M58.3872065,42.8874291 C57.1218355,42.8874291 56.0916581,41.8443261 56.0916581,40.5622412 C56.0916581,39.2805321 57.1218355,38.2389321 58.3872065,38.2389321 C59.6525774,38.2389321 60.6827548,39.2805321 60.6827548,40.5622412 C60.6827548,41.8443261 59.6525774,42.8874291 58.3872065,42.8874291" id="Fill-34" fill="#F22613"></path>
                    <path d="M40.9549871,21.5497721 C40.9549871,22.2761115 40.3736806,22.8649236 39.6566,22.8649236 C38.9391484,22.8649236 38.3582129,22.2761115 38.3582129,21.5497721 C38.3582129,20.8234327 38.9391484,20.2346206 39.6566,20.2346206 C40.3736806,20.2346206 40.9549871,20.8234327 40.9549871,21.5497721" id="Fill-36" fill="#F22613"></path>
                    <path d="M39.6564145,21.2430036 C39.490221,21.2430036 39.3548177,21.3809067 39.3548177,21.5503733 C39.3548177,21.8855491 39.9580113,21.8855491 39.9580113,21.5503733 C39.9580113,21.3809067 39.8226081,21.2430036 39.6564145,21.2430036 M39.6564145,23.8736824 C38.3910435,23.8736824 37.3608661,22.8320824 37.3608661,21.5503733 C37.3608661,20.2686642 38.3910435,19.2251855 39.6564145,19.2251855 C40.9217855,19.2251855 41.9519629,20.2686642 41.9519629,21.5503733 C41.9519629,22.8320824 40.9217855,23.8736824 39.6564145,23.8736824" id="Fill-38" fill="#F22613"></path>
                    <path d="M40.9549871,59.4273382 C40.9549871,60.1536776 40.3736806,60.7424897 39.6566,60.7424897 C38.9391484,60.7424897 38.3582129,60.1536776 38.3582129,59.4273382 C38.3582129,58.700623 38.9391484,58.1121867 39.6566,58.1121867 C40.3736806,58.1121867 40.9549871,58.700623 40.9549871,59.4273382" id="Fill-40" fill="#F22613"></path>
                    <path d="M39.6564145,59.1209455 C39.490221,59.1209455 39.3548177,59.2588485 39.3548177,59.4279394 C39.3548177,59.7634909 39.9580113,59.7634909 39.9580113,59.4279394 C39.9580113,59.2588485 39.8226081,59.1209455 39.6564145,59.1209455 M39.6564145,61.7516242 C38.3910435,61.7516242 37.3608661,60.7100242 37.3608661,59.4279394 C37.3608661,58.1462303 38.3910435,57.1031273 39.6564145,57.1031273 C40.9217855,57.1031273 41.9519629,58.1462303 41.9519629,59.4279394 C41.9519629,60.7100242 40.9217855,61.7516242 39.6564145,61.7516242" id="Fill-42" fill="#F22613"></path>
                    <path d="M39.6897274,22.6856497 L20.9922113,22.6856497 C20.4413242,22.6856497 19.995421,22.2339891 19.995421,21.6767406 C19.995421,21.1198679 20.4413242,20.6678315 20.9922113,20.6678315 L39.6897274,20.6678315 C40.2402435,20.6678315 40.6865177,21.1198679 40.6865177,21.6767406 C40.6865177,22.2339891 40.2402435,22.6856497 39.6897274,22.6856497" id="Fill-44" fill="#F22613"></path>
                    <path d="M39.6897274,60.5634412 L20.9922113,60.5634412 C20.4413242,60.5634412 19.995421,60.1117806 19.995421,59.5545321 C19.995421,58.9976594 20.4413242,58.545623 20.9922113,58.545623 L39.6897274,58.545623 C40.2402435,58.545623 40.6865177,58.9976594 40.6865177,59.5545321 C40.6865177,60.1117806 40.2402435,60.5634412 39.6897274,60.5634412" id="Fill-46" fill="#F22613"></path>
                    <g id="Group-50" transform="translate(71.596774, 0.127382)" fill="#FFFFFF">
                        <path d="M12.0001016,1.79638424 L11.2010371,3.58085697 C9.72087581,2.58171758 7.98252097,2.17740242 6.66632742,2.17740242 C4.55144032,2.17740242 3.16513387,2.98603273 3.16513387,4.3909903 C3.16513387,8.67500242 12.4237468,6.43661455 12.4000048,12.4821782 C12.4000048,15.2672933 9.97944032,17.0521418 6.45524677,17.0521418 C4.05842419,17.0521418 1.70834355,16.0052812 0.157698387,14.50676 L1.00350484,12.7929297 C2.53115,14.2914509 4.62192419,15.1493055 6.47861774,15.1493055 C8.85132742,15.1493055 10.3314887,14.1730873 10.3314887,12.5772448 C10.3552306,8.19816606 1.09773065,10.5316206 1.09773065,4.55707515 C1.09773065,1.93917212 3.37695645,0.24826303 6.78355323,0.24826303 C8.68735968,0.24826303 10.6375371,0.867887273 12.0001016,1.79638424" id="Fill-48"></path>
                    </g>
                    <path d="M88.9860726,8.77750909 C88.9860726,12.4434 92.040621,15.3716788 95.7065242,15.3716788 C99.3720565,15.3716788 102.379492,12.4434 102.379492,8.77750909 C102.379492,5.11312121 99.3720565,2.20964242 95.7065242,2.20964242 C92.040621,2.20964242 88.9860726,5.11312121 88.9860726,8.77750909 M104.306669,8.77750909 C104.306669,13.4673394 100.500169,17.2038727 95.7065242,17.2038727 C90.889879,17.2038727 87.083379,13.4673394 87.083379,8.77750909 C87.083379,4.06626061 90.889879,0.400369697 95.7065242,0.400369697 C100.500169,0.400369697 104.306669,4.08955758 104.306669,8.77750909" id="Fill-51" fill="#FFFFFF"></path>
                    <polygon id="Fill-53" fill="#FFFFFF" points="117.305342 15.2994958 117.305342 17.1087685 108.21181 17.1087685 108.21181 0.448053333 110.091132 0.448053333 110.091132 15.2994958"></polygon>
                    <polygon id="Fill-55" fill="#FFFFFF" points="123.933831 17.1087685 117.260492 0.448053333 119.281153 0.448053333 124.944718 14.8951806 130.63054 0.448053333 132.604089 0.448053333 125.883637 17.1087685"></polygon>
                    <polygon id="Fill-57" fill="#FFFFFF" points="137.887894 2.28028485 137.887894 7.75544848 146.182361 7.75544848 146.182361 9.58764242 137.887894 9.58764242 137.887894 15.2995333 147.474813 15.2995333 147.474813 17.1088061 136.008571 17.1088061 136.008571 0.448090909 147.169877 0.448090909 147.169877 2.28028485"></polygon>
                    <path d="M85.4535323,24.3338352 L83.8791452,27.6416291 C82.1400484,26.6180655 79.9550484,25.9048776 78.6154839,25.9048776 C77.5344839,25.9048776 76.8059032,26.3091927 76.8059032,27.1193261 C76.8059032,29.9980048 85.5006452,28.3566958 85.5006452,34.3770836 C85.5006452,37.7096776 82.5870645,39.4712291 78.9207903,39.4712291 C76.1715484,39.4712291 73.3521935,38.4247442 71.4016452,36.8059806 L73.0227742,33.5440291 C74.715129,35.0444291 77.2529194,36.0435685 78.9679032,36.0435685 C80.2840968,36.0435685 81.1069032,35.5438109 81.1069032,34.5923927 C81.1069032,31.6415685 72.4121613,33.4012412 72.4121613,27.4984655 C72.4121613,24.4292776 75.0208065,22.477217 78.9679032,22.477217 C81.3413548,22.477217 83.7615484,23.2148291 85.4535323,24.3338352" id="Fill-59" fill="#FFFFFF"></path>
                    <polygon id="Fill-61" fill="#FFFFFF" points="103.416124 39.3283661 103.392753 28.4997842 99.4449145 37.6618812 96.7194145 37.6618812 92.7715758 28.4997842 92.7715758 39.3283661 89.0355597 39.3283661 89.0355597 22.6432267 93.6177532 22.6432267 98.08235 32.5681115 102.546576 22.6432267 107.105027 22.6432267 107.105027 39.3283661"></polygon>
                    <path d="M118.738465,26.8808327 L116.341642,33.04476 L121.088174,33.04476 L118.738465,26.8808327 Z M115.120045,36.2589903 L113.921077,39.3281782 L109.62119,39.3281782 L116.718174,22.6678388 L121.018061,22.6678388 L127.949965,39.3281782 L123.485368,39.3281782 L122.309771,36.2589903 L115.120045,36.2589903 Z" id="Fill-63" fill="#FFFFFF"></path>
                    <path d="M137.79786,31.3075576 C139.60744,31.3075576 140.664327,30.3790606 140.664327,28.6178848 C140.664327,26.8807576 139.60744,25.9999818 137.79786,25.9999818 L134.625344,25.9999818 L134.625344,31.3075576 L137.79786,31.3075576 Z M137.915456,34.6401515 L137.79786,34.6401515 L134.625344,34.6401515 L134.625344,39.3284788 L130.443053,39.3284788 L130.443053,22.6677636 L137.79786,22.6677636 C142.14486,22.6677636 144.635908,24.7629879 144.635908,28.4747212 C144.635908,31.0216061 143.577908,32.8538 141.651473,33.8300182 L145.105182,39.3284788 L140.359392,39.3284788 L137.915456,34.6401515 Z" id="Fill-65" fill="#FFFFFF"></path>
                    <polygon id="Fill-67" fill="#FFFFFF" points="155.950981 26.0707745 155.950981 39.3282533 151.767948 39.3282533 151.767948 26.0707745 146.857448 26.0707745 146.857448 22.6431139 160.908594 22.6431139 160.908594 26.0707745"></polygon>
                    <path d="M85.9802694,47.2651176 L84.8528984,48.7174206 C83.5841887,47.4079055 81.797979,46.6225721 79.9883984,46.6225721 C76.2757532,46.6225721 73.2916887,49.5260509 73.2916887,53.1919418 C73.2916887,56.8334085 76.2757532,59.7616873 79.9883984,59.7616873 C81.797979,59.7616873 83.5608177,58.9992752 84.8528984,57.7619055 L86.0036403,59.0714206 C84.3821403,60.617663 82.1737694,61.6416024 79.8941726,61.6416024 C75.1483823,61.6416024 71.3889952,57.9046933 71.3889952,53.1919418 C71.3889952,48.5269115 75.1954952,44.8380994 79.9650274,44.8380994 C82.2205113,44.8380994 84.4058823,45.7665964 85.9802694,47.2651176" id="Fill-69" fill="#FFFFFF"></path>
                    <polygon id="Fill-71" fill="#FFFFFF" points="90.1065806 61.5460848 91.9859032 61.5460848 91.9859032 44.8853697 90.1065806 44.8853697"></polygon>
                    <polygon id="Fill-73" fill="#FFFFFF" points="102.646663 46.7176388 102.646663 61.54616 100.76734 61.54616 100.76734 46.7176388 95.4098242 46.7176388 95.4098242 44.8854448 108.027921 44.8854448 108.027921 46.7176388"></polygon>
                    <polygon id="Fill-74" fill="#FFFFFF" points="111.466161 61.5460848 113.345484 61.5460848 113.345484 44.8853697 111.466161 44.8853697"></polygon>
                    <polygon id="Fill-75" fill="#FFFFFF" points="120.887481 46.7176388 120.887481 52.1928024 129.182319 52.1928024 129.182319 54.0249964 120.887481 54.0249964 120.887481 59.7368873 130.4744 59.7368873 130.4744 61.54616 119.008158 61.54616 119.008158 44.8854448 130.169465 44.8854448 130.169465 46.7176388"></polygon>
                    <path d="M145.285658,46.3613455 L144.486594,48.1458182 C143.006432,47.1466788 141.268077,46.7427394 139.951513,46.7427394 C137.836997,46.7427394 136.45069,47.5509939 136.45069,48.9559515 C136.45069,53.2399636 145.709303,51.0019515 145.685561,57.0467636 C145.685561,59.8326303 143.264997,61.617103 139.740803,61.617103 C137.343981,61.617103 134.9939,60.5698667 133.443255,59.0713455 L134.289061,57.3578909 C135.816335,58.8564121 137.907481,59.7138909 139.764174,59.7138909 C142.136884,59.7138909 143.617045,58.7380485 143.617045,57.1422061 C143.640787,52.7631273 134.383287,55.0965818 134.383287,49.1220364 C134.383287,46.5041333 136.662513,44.8132242 140.06911,44.8132242 C141.972916,44.8132242 143.923094,45.4328485 145.285658,46.3613455" id="Fill-76" fill="#FFFFFF"></path>
                </g>
            </g>
        </g>
    </g>
</svg>