<?xml version="1.0" encoding="UTF-8"?>
<svg width="25px" height="25px" viewBox="0 0 25 25" version="1.1" xmlns="http://www.w3.org/2000/svg" xmlns:xlink="http://www.w3.org/1999/xlink">
    <!-- Generator: Sketch 43.2 (39069) - http://www.bohemiancoding.com/sketch -->
    <title>submenu-icon-settings</title>
    <desc>Created with Sketch.</desc>
    <defs></defs>
    <g id="Symbols" stroke="none" stroke-width="1" fill="none" fill-rule="evenodd">
        <g id="Side-MENU" transform="translate(-46.000000, -831.000000)" fill="#FFFFFF">
            <g id="SETTINGS">
                <g transform="translate(0.000000, 814.000000)">
                    <path d="M63.2591562,34.2596076 C64.4779141,33.042011 65.2312585,31.3595951 65.2312585,29.500318 C65.2312585,27.6429565 64.4779141,25.9592636 63.2591562,24.74039 C62.041675,23.5221549 60.3594187,22.7693776 58.500318,22.7693776 C56.6418558,22.7693776 54.9595995,23.5234319 53.7408415,24.741667 C52.5233604,25.9592636 51.7693776,27.6429565 51.7693776,29.500318 C51.7693776,31.3595951 52.5233604,33.042011 53.7408415,34.2596076 C54.9595995,35.4778427 56.6418558,36.2312585 58.500318,36.2312585 C60.3594187,36.2312585 62.041675,35.4778427 63.2591562,34.2596076 L63.2591562,34.2596076 Z M61.8467547,20.0958197 L62.7938834,20.4882833 L62.7951556,20.4895555 L62.7951556,20.4882833 C62.8555835,20.5130906 62.9160115,20.5245401 62.9738951,20.5219958 C63.0298705,20.5200875 63.0896624,20.5035493 63.1481821,20.4736534 L65.1531181,19.4387451 C65.3452154,19.3407882 65.5532148,19.308984 65.752309,19.3395161 C65.9514032,19.3713203 66.1403201,19.4648246 66.291708,19.6155764 L66.2929802,19.6162125 L66.2929802,19.6155764 L68.3831514,21.7057477 C68.5351754,21.8571356 68.6286797,22.0479607 68.6604839,22.247691 C68.691016,22.4467852 68.6598478,22.6554207 68.5618909,22.8462458 L67.5263466,24.852454 C67.4951785,24.9103376 67.4799125,24.9688573 67.4780042,25.0261049 C67.4748238,25.0846246 67.4862733,25.1444165 67.5117167,25.2061166 L67.9105412,26.1697835 C67.9353484,26.2283032 67.969697,26.2791899 68.0129507,26.3186271 C68.0562044,26.3593364 68.1089993,26.3885963 68.1700634,26.408951 L70.3187543,27.0940132 C70.5229372,27.1595298 70.6940437,27.2848383 70.8123553,27.4470397 L70.8136275,27.4457675 C70.9332112,27.6111493 71.0006361,27.8108796 71.0006361,28.0252398 L71.0006361,30.9747602 C71.0006361,31.1891204 70.9332112,31.3894868 70.8136275,31.5535964 L70.8123553,31.5535964 L70.8136275,31.5542325 C70.6953159,31.7151617 70.5254815,31.8411063 70.3187543,31.9053507 L68.1700634,32.591049 C68.1089993,32.6114037 68.0562044,32.6419357 68.0123146,32.6832812 C67.9703331,32.7208101 67.9353484,32.7723329 67.9105412,32.8321248 L67.9035443,32.8454825 L67.5117167,33.7938834 C67.4862733,33.8543114 67.4748238,33.9153754 67.4780042,33.9738951 C67.4799125,34.0311427 67.4951785,34.0896624 67.5263466,34.1494542 L68.5618909,36.1543903 C68.6598478,36.3452154 68.691016,36.5538509 68.6604839,36.752309 C68.6286797,36.9526754 68.5351754,37.1428644 68.3831514,37.2942523 L66.2929802,39.3844236 C66.1428644,39.5358115 65.9526754,39.6299519 65.752309,39.66112 C65.5532148,39.691016 65.3439432,39.66112 65.1531181,39.5612549 L63.1481821,38.5257105 C63.0896624,38.4970867 63.0298705,38.4799125 62.9738951,38.4780042 C62.9147393,38.4741877 62.8543114,38.4869094 62.7938834,38.5117167 L61.8308526,38.9099051 C61.7716968,38.9353484 61.7214462,38.9709691 61.682009,39.0129507 C61.6419357,39.0568404 61.6114037,39.1096354 61.5916851,39.1700634 L60.9059868,41.3187543 L60.9047147,41.3200265 L60.9059868,41.3200265 C60.8398341,41.5242093 60.7145256,41.6940437 60.5516882,41.8129914 C60.3882146,41.9332112 60.1878483,42 59.9747602,42 L57.0239676,42 C56.8108796,42 56.6111493,41.9332112 56.4470397,41.8129914 C56.2842022,41.6940437 56.1595298,41.5242093 56.0940132,41.3200265 L56.0901967,41.3073048 L55.4076788,39.1694273 C55.3885963,39.1083632 55.3580643,39.0562044 55.317991,39.0129507 C55.2785538,38.9709691 55.2283032,38.9366206 55.1678752,38.9099051 L55.1538814,38.9041803 L54.2061166,38.5117167 C54.1456886,38.4869094 54.0846246,38.4741877 54.0261049,38.4780042 C53.9688573,38.4799125 53.9109737,38.4970867 53.852454,38.5257105 L51.8456097,39.5612549 C51.6554207,39.66112 51.4467852,39.691016 51.247691,39.66112 C51.0466885,39.6299519 50.8571356,39.5358115 50.7057477,39.3844236 L48.6155764,37.2942523 L48.5990382,37.2758059 C48.4559194,37.1269623 48.369412,36.9444063 48.3395161,36.7535812 C48.3077119,36.5538509 48.3395161,36.3452154 48.4387451,36.1543903 L49.4736534,34.1494542 C49.5035493,34.0896624 49.5194514,34.0311427 49.5219958,33.9738951 C49.5245401,33.9153754 49.5130906,33.8543114 49.4876473,33.7938834 L49.0888227,32.8308526 C49.0646516,32.7710607 49.0309391,32.7208101 48.9870493,32.682009 C48.9437956,32.6419357 48.8897285,32.6114037 48.8293006,32.591049 L46.6812457,31.9053507 C46.4745185,31.8398341 46.3053202,31.7151617 46.1863725,31.5535964 L46.1730148,31.5326057 C46.0623362,31.3735847 46,31.1814874 46,30.9747602 L46,28.0252398 C46,27.8121517 46.0667888,27.6117854 46.1863725,27.4483118 L46.1876447,27.4470397 L46.1863725,27.4457675 C46.3053202,27.2848383 46.4745185,27.1601659 46.6812457,27.0940132 L48.8286645,26.408951 L48.8286645,26.4076788 C48.8897285,26.3885963 48.9437956,26.3567921 48.9870493,26.3173549 C49.0309391,26.2791899 49.0646516,26.2283032 49.0888227,26.1691474 L49.4876473,25.2061166 C49.5130906,25.1444165 49.5245401,25.0846246 49.5219958,25.0261049 C49.5194514,24.9688573 49.5035493,24.9103376 49.4736534,24.852454 L48.4387451,22.8462458 C48.3395161,22.6554207 48.3077119,22.4467852 48.3395161,22.247691 C48.3700481,22.0479607 48.4635524,21.8584078 48.6155764,21.7070198 L48.6155764,21.7057477 L50.7057477,19.6155764 C50.8571356,19.4648246 51.0466885,19.3713203 51.247691,19.3395161 C51.4467852,19.308984 51.6554207,19.3407882 51.8456097,19.4387451 L53.852454,20.4736534 C53.9109737,20.5035493 53.9688573,20.5200875 54.0261049,20.5219958 C54.0846246,20.5245401 54.1450525,20.5130906 54.2048444,20.4895555 L54.2042083,20.4882833 L55.1678752,20.0888227 L55.1786886,20.0850062 C55.2353001,20.0608351 55.2810981,20.0277587 55.317991,19.9883215 C55.3580643,19.9444317 55.3885963,19.8916368 55.408951,19.8293006 L55.4114953,19.8178511 L56.0940132,17.6812457 L56.0940132,17.6799735 C56.1595298,17.4757907 56.2842022,17.3053202 56.4470397,17.1870086 C56.6111493,17.0667888 56.8108796,17 57.0252398,17 L59.9747602,17 C60.1891204,17 60.3882146,17.0667888 60.5516882,17.1870086 C60.7157978,17.3053202 60.8398341,17.4757907 60.9059868,17.6799735 L60.9091672,17.6933313 L61.5929573,19.8293006 C61.6114037,19.8916368 61.6419357,19.9444317 61.682009,19.9883215 C61.7214462,20.0296669 61.7716968,20.0640155 61.8321248,20.0888227 L61.8467547,20.0958197 Z" id="submenu-icon-settings"></path>
                </g>
            </g>
        </g>
    </g>
</svg>