<?xml version="1.0" encoding="UTF-8"?>
<svg width="25px" height="25px" viewBox="0 0 25 25" version="1.1" xmlns="http://www.w3.org/2000/svg" xmlns:xlink="http://www.w3.org/1999/xlink">
    <!-- Generator: Sketch 43.2 (39069) - http://www.bohemiancoding.com/sketch -->
    <title>submenu-icon-logout</title>
    <desc>Created with Sketch.</desc>
    <defs></defs>
    <g id="Symbols" stroke="none" stroke-width="1" fill="none" fill-rule="evenodd">
        <g id="Side-MENU" transform="translate(-46.000000, -890.000000)" fill="#FFFFFF">
            <g id="LOG-OUT">
                <g transform="translate(0.000000, 874.000000)">
                    <path d="M70.7137001,28.179556 C70.9199947,28.3562722 70.9199947,28.6435492 70.7137001,28.8202654 L63.6552499,34.8666767 C63.3230627,35.151235 62.7528432,34.9500505 62.7528432,34.5458689 L62.7528432,31.6721923 L54.8184343,31.6721923 C54.5253901,31.6721923 54.2894737,31.4691953 54.2894737,31.219074 L54.2894737,25.7816537 C54.2894737,25.5306261 54.5253901,25.3285353 54.8184343,25.3285353 L62.7528432,25.3285353 L62.7528432,22.4539525 C62.7528432,22.0497709 63.3230627,21.8485864 63.6552499,22.1331447 L70.7137001,28.179556 Z M54.9473684,37.4285714 C55.2378947,37.4285714 55.4736842,37.6285714 55.4736842,37.875 L55.4736842,40.5535714 C55.4736842,40.8 55.2378947,41 54.9473684,41 L46.5263158,41 C46.2357895,41 46,40.8 46,40.5535714 L46,16.4464286 C46,16.2 46.2357895,16 46.5263158,16 L54.9473684,16 C55.2378947,16 55.4736842,16.2 55.4736842,16.4464286 L55.4736842,19.125 C55.4736842,19.3714286 55.2378947,19.5714286 54.9473684,19.5714286 L50.2105263,19.5714286 L50.2105263,37.4285714 L54.9473684,37.4285714 Z" id="submenu-icon-logout"></path>
                </g>
            </g>
        </g>
    </g>
</svg>